<svg id="medal" xmlns="http://www.w3.org/2000/svg" width="40.728" height="53.476" viewBox="0 0 40.728 53.476">
  <path id="Path_1456" data-name="Path 1456" d="M15.324.588A1.569,1.569,0,0,0,14.1,0H1.566A1.567,1.567,0,0,0,.342,2.546L12.876,18.213l8.715-9.792Zm0,0" transform="translate(0 0)" fill="#f03800"/>
  <path id="Path_1457" data-name="Path 1457" d="M150.812,2.538l-11.75,14.7h-8.272l-7.489-.971,7.489-9.369L135.834.6a1.544,1.544,0,0,1,1.222-.6H149.59A1.568,1.568,0,0,1,151,.877a1.588,1.588,0,0,1-.188,1.661Zm0,0" transform="translate(-110.422 0)" fill="#ff641a"/>
  <path id="Path_1458" data-name="Path 1458" d="M215.022,2.538l-11.75,14.7H195V6.893L200.045.6a1.545,1.545,0,0,1,1.222-.6H213.8a1.568,1.568,0,0,1,1.41.878,1.588,1.588,0,0,1-.188,1.661Zm0,0" transform="translate(-174.633 0)" fill="#f03800"/>
  <path id="Path_1459" data-name="Path 1459" d="M154.7,150a4.7,4.7,0,1,0,4.7,4.7A4.693,4.693,0,0,0,154.7,150Zm0,0" transform="translate(-134.333 -134.333)" fill="#ffda2d"/>
  <path id="Path_1460" data-name="Path 1460" d="M195,159.4V150a4.7,4.7,0,0,1,0,9.4Zm0,0" transform="translate(-174.633 -134.333)" fill="#fdbf00"/>
  <path id="Path_1461" data-name="Path 1461" d="M60.667,210a15.772,15.772,0,1,0,15.667,15.771A15.762,15.762,0,0,0,60.667,210Zm0,0" transform="translate(-40.3 -188.066)" fill="#fff261"/>
  <path id="Path_1462" data-name="Path 1462" d="M210.667,225.771A15.762,15.762,0,0,1,195,241.543V210A15.762,15.762,0,0,1,210.667,225.771Zm0,0" transform="translate(-174.633 -188.066)" fill="#ffda2d"/>
  <path id="Path_1463" data-name="Path 1463" d="M100.067,252.638A12.534,12.534,0,1,1,87.534,240,12.62,12.62,0,0,1,100.067,252.638Zm0,0" transform="translate(-67.167 -214.933)" fill="#ffda2d"/>
  <path id="Path_1464" data-name="Path 1464" d="M207.534,252.638A12.62,12.62,0,0,1,195,265.276V240A12.62,12.62,0,0,1,207.534,252.638Zm0,0" transform="translate(-174.633 -214.933)" fill="#fdbf00"/>
  <path id="Path_1465" data-name="Path 1465" d="M123.842,282.475a1.558,1.558,0,0,0-1.284-1.065l-4.575-.69-2.037-4.136a1.661,1.661,0,0,0-2.82,0l-2.037,4.136-4.575.69a1.558,1.558,0,0,0-1.284,1.065,1.524,1.524,0,0,0,.407,1.6l3.321,3.227-.783,4.648a1.542,1.542,0,0,0,.627,1.536,1.476,1.476,0,0,0,1.63.125l4.1-2.162,4.1,2.162a1.476,1.476,0,0,0,1.63-.125,1.542,1.542,0,0,0,.627-1.536l-.783-4.648,3.321-3.227a1.524,1.524,0,0,0,.407-1.6Zm0,0" transform="translate(-94.169 -246.994)" fill="#fff261"/>
  <path id="Path_1466" data-name="Path 1466" d="M203.9,284.073l-3.322,3.228.783,4.648a1.54,1.54,0,0,1-.627,1.535,1.475,1.475,0,0,1-1.629.125l-4.1-2.162V275.8a1.552,1.552,0,0,1,1.41.783l2.037,4.136,4.575.689a1.558,1.558,0,0,1,1.284,1.065,1.524,1.524,0,0,1-.407,1.6Zm0,0" transform="translate(-174.633 -246.994)" fill="#ffda2d"/>
  <path id="Path_1467" data-name="Path 1467" d="M87.731,155.8a1.514,1.514,0,0,1-2.193,0l-2.695-2.663H65.359L62.664,155.8A1.551,1.551,0,1,1,60.47,153.6L63.6,150.47a1.47,1.47,0,0,1,1.1-.47H83.5a1.47,1.47,0,0,1,1.1.47l3.133,3.133a1.514,1.514,0,0,1,0,2.193Zm0,0" transform="translate(-53.734 -134.333)" fill="#fff261"/>
  <path id="Path_1468" data-name="Path 1468" d="M208.63,155.8a1.514,1.514,0,0,1-2.193,0l-2.695-2.663H195V150h9.4a1.47,1.47,0,0,1,1.1.47l3.133,3.133A1.515,1.515,0,0,1,208.63,155.8Zm0,0" transform="translate(-174.633 -134.333)" fill="#ffda2d"/>
</svg>
