<svg width="24" height="23" viewBox="0 0 24 23" fill="none" xmlns="http://www.w3.org/2000/svg">
<path d="M24 20.8V1.6C24 0.72 23.28 0 22.4 0H1.6C0.72 0 0 0.72 0 1.6V20.8C0 21.68 0.72 22.4 1.6 22.4H22.4C23.28 22.4 24 21.68 24 20.8ZM8 12.8H9.6C10.48 12.8 11.2 13.52 11.2 14.4C11.2 15.28 10.48 16 9.6 16H8V18.4C8 18.848 7.648 19.2 7.2 19.2C6.752 19.2 6.4 18.848 6.4 18.4V16H4.8C3.92 16 3.2 15.28 3.2 14.4C3.2 13.52 3.92 12.8 4.8 12.8H6.4V4C6.4 3.552 6.752 3.2 7.2 3.2C7.648 3.2 8 3.552 8 4V12.8ZM16 9.6H14.4C13.52 9.6 12.8 8.88 12.8 8C12.8 7.12 13.52 6.4 14.4 6.4H16V4C16 3.552 16.352 3.2 16.8 3.2C17.248 3.2 17.6 3.552 17.6 4V6.4H19.2C20.08 6.4 20.8 7.12 20.8 8C20.8 8.88 20.08 9.6 19.2 9.6H17.6V18.4C17.6 18.848 17.248 19.2 16.8 19.2C16.352 19.2 16 18.848 16 18.4V9.6Z" fill="#008000" fill-opacity="0.8"/>
</svg>
