<svg width="221" height="60" viewBox="0 0 221 60" fill="none" xmlns="http://www.w3.org/2000/svg">
<path d="M62.7894 31.5894V47.2162H60.1945V44.9064C59.7002 45.7049 59.0063 46.3322 58.1128 46.7885C57.2383 47.2257 56.2688 47.4443 55.2042 47.4443C53.9875 47.4443 52.8943 47.1972 51.9248 46.7029C50.9553 46.1896 50.1853 45.4292 49.615 44.4216C49.0637 43.4141 48.788 42.1879 48.788 40.7431V31.5894H51.3545V40.4009C51.3545 41.9407 51.7442 43.1289 52.5236 43.9654C53.3031 44.7828 54.3677 45.1916 55.7174 45.1916C57.1052 45.1916 58.1983 44.7638 58.9968 43.9083C59.7953 43.0529 60.1945 41.8077 60.1945 40.1727V31.5894H62.7894ZM74.7847 31.3042C76.6858 31.3042 78.2257 31.884 79.4043 33.0437C80.583 34.1843 81.1723 35.8383 81.1723 38.0055V47.2162H78.6059V38.3762C78.6059 36.8173 78.2161 35.6292 77.4367 34.8117C76.6573 33.9752 75.5927 33.557 74.2429 33.557C72.8741 33.557 71.781 33.9847 70.9635 34.8402C70.1651 35.6957 69.7659 36.9409 69.7659 38.5758V47.2162H67.1709V31.5894H69.7659V33.8136C70.2792 33.0152 70.9731 32.3973 71.8475 31.9601C72.7411 31.5228 73.7201 31.3042 74.7847 31.3042ZM84.4417 39.3458C84.4417 37.7489 84.7648 36.3516 85.4112 35.1539C86.0576 33.9372 86.9416 32.9962 88.0632 32.3308C89.2038 31.6654 90.4776 31.3327 91.8844 31.3327C93.101 31.3327 94.2322 31.6179 95.2778 32.1882C96.3234 32.7395 97.1218 33.4714 97.6731 34.384V26.1143H100.297V47.2162H97.6731V44.2791C97.1598 45.2106 96.3994 45.9805 95.3918 46.5889C94.3843 47.1782 93.2056 47.4729 91.8558 47.4729C90.4681 47.4729 89.2038 47.1307 88.0632 46.4463C86.9416 45.7619 86.0576 44.8019 85.4112 43.5662C84.7648 42.3305 84.4417 40.9237 84.4417 39.3458ZM97.6731 39.3743C97.6731 38.1956 97.4355 37.169 96.9602 36.2945C96.485 35.42 95.8386 34.7547 95.0211 34.2984C94.2227 33.8231 93.3387 33.5855 92.3691 33.5855C91.3996 33.5855 90.5156 33.8136 89.7171 34.2699C88.9187 34.7262 88.2818 35.3915 87.8066 36.266C87.3313 37.1405 87.0937 38.1671 87.0937 39.3458C87.0937 40.5434 87.3313 41.589 87.8066 42.4825C88.2818 43.357 88.9187 44.0319 89.7171 44.5072C90.5156 44.9634 91.3996 45.1916 92.3691 45.1916C93.3387 45.1916 94.2227 44.9634 95.0211 44.5072C95.8386 44.0319 96.485 43.357 96.9602 42.4825C97.4355 41.589 97.6731 40.5529 97.6731 39.3743Z" fill="black" fill-opacity="0.8"/>
<path d="M124.843 27.4831V47.2162H122.248V32.5019L115.689 47.2162H113.864L107.277 32.4734V47.2162H104.682V27.4831H107.476L114.777 43.7943L122.077 27.4831H124.843ZM142.703 31.5894L133.293 54.5734H130.612L133.692 47.0451L127.39 31.5894H130.27L135.175 44.2505L140.023 31.5894H142.703Z" fill="black" fill-opacity="0.7"/>
<path d="M157.916 27.1979V31.1046H149.76V35.325H155.863V39.1176H149.76V47.2162H144.884V27.1979H157.916ZM159.509 39.2317C159.509 37.5968 159.813 36.1615 160.422 34.9258C161.049 33.6901 161.895 32.7395 162.96 32.0742C164.024 31.4088 165.212 31.0761 166.524 31.0761C167.646 31.0761 168.625 31.3042 169.461 31.7605C170.317 32.2167 170.973 32.8156 171.429 33.557V31.3042H176.305V47.2162H171.429V44.9634C170.954 45.7049 170.288 46.3037 169.433 46.76C168.596 47.2162 167.617 47.4443 166.496 47.4443C165.203 47.4443 164.024 47.1117 162.96 46.4463C161.895 45.7619 161.049 44.8019 160.422 43.5662C159.813 42.3114 159.509 40.8666 159.509 39.2317ZM171.429 39.2602C171.429 38.0435 171.087 37.0835 170.402 36.3801C169.737 35.6767 168.92 35.325 167.95 35.325C166.98 35.325 166.154 35.6767 165.469 36.3801C164.804 37.0645 164.471 38.015 164.471 39.2317C164.471 40.4484 164.804 41.4179 165.469 42.1403C166.154 42.8437 166.98 43.1954 167.95 43.1954C168.92 43.1954 169.737 42.8437 170.402 42.1403C171.087 41.4369 171.429 40.4769 171.429 39.2602ZM184.709 33.9562C185.28 33.0817 185.992 32.3973 186.848 31.9031C187.703 31.3898 188.654 31.1331 189.7 31.1331V36.2945H188.359C187.143 36.2945 186.23 36.5607 185.622 37.093C185.013 37.6063 184.709 38.5188 184.709 39.8305V47.2162H179.833V31.3042H184.709V33.9562ZM212.334 31.1331C214.311 31.1331 215.879 31.732 217.039 32.9296C218.218 34.1273 218.807 35.7908 218.807 37.92V47.2162H213.959V38.5758C213.959 37.5492 213.684 36.7603 213.132 36.209C212.6 35.6387 211.859 35.3535 210.908 35.3535C209.957 35.3535 209.207 35.6387 208.655 36.209C208.123 36.7603 207.857 37.5492 207.857 38.5758V47.2162H203.009V38.5758C203.009 37.5492 202.733 36.7603 202.182 36.209C201.65 35.6387 200.908 35.3535 199.958 35.3535C199.007 35.3535 198.256 35.6387 197.705 36.209C197.173 36.7603 196.907 37.5492 196.907 38.5758V47.2162H192.03V31.3042H196.907V33.3003C197.401 32.635 198.047 32.1122 198.846 31.732C199.644 31.3327 200.547 31.1331 201.555 31.1331C202.752 31.1331 203.817 31.3898 204.749 31.9031C205.699 32.4163 206.44 33.1483 206.973 34.0988C207.524 33.2243 208.275 32.5114 209.226 31.9601C210.176 31.4088 211.212 31.1331 212.334 31.1331Z" fill="#046307"/>
<path fill-rule="evenodd" clip-rule="evenodd" d="M21.8096 14.3514C21.8096 10.5451 23.2867 6.89481 25.916 4.20341C28.5454 1.51201 32.1115 0 35.83 0L46.7348 0V11.1622C46.7348 14.9684 45.2576 18.6187 42.6283 21.3101C39.9989 24.0015 36.4328 25.5135 32.7143 25.5135H24.9252V47.8378H21.8096V35.0811H14.0204C10.302 35.0811 6.73583 33.5691 4.10649 30.8777C1.47715 28.1863 0 24.5359 0 20.7297L0 9.56757H10.9048C15.3103 9.56757 19.2391 11.6469 21.8096 14.8967V14.3514ZM25.3801 19.6008L34.727 10.0332L36.9329 12.2911L27.586 21.8587L25.3801 19.6008ZM19.1488 31.4263L9.80184 21.8587L12.0077 19.6008L21.3547 29.1683L19.1488 31.4263Z" fill="#046307"/>
<rect x="24.5557" y="36.4865" width="3.24324" height="16.6344" transform="rotate(-90 24.5557 36.4865)" fill="#046307"/>
</svg>
