<?xml version="1.0"?>
<svg xmlns="http://www.w3.org/2000/svg" xmlns:xlink="http://www.w3.org/1999/xlink" xmlns:svgjs="http://svgjs.com/svgjs" version="1.1" width="512" height="512" x="0" y="0" viewBox="0 0 64 64" style="enable-background:new 0 0 512 512" xml:space="preserve" class=""><g><path xmlns="http://www.w3.org/2000/svg" d="m46.919 11.84-1.929 14.392 3.5-1.445a17.988 17.988 0 0 1 -24.585 23.272l-4.517 8.941a27.991 27.991 0 0 0 37.791-37.228l3.668-1.54z" fill="#028e29" data-original="#7ed63e" style=""/><path xmlns="http://www.w3.org/2000/svg" d="m23 16.411a17.96 17.96 0 0 1 17.1-.47l4.517-8.936a27.991 27.991 0 0 0 -37.796 37.223l-3.668 1.54 13.928 6.392 1.929-14.392-3.5 1.445a18.026 18.026 0 0 1 7.49-22.802z" fill="#7ebf4e" data-original="#5eac24" style="" class=""/></g></svg>
